<svg xmlns="http://www.w3.org/2000/svg" viewBox="0 0 119.74 80"><defs><style>.cls-1{fill:#f42f89;}</style></defs><g id="Layer_2" data-name="Layer 2"><g id="Layer_1-2" data-name="Layer 1"><path class="cls-1" d="M119.24,19.68A9.27,9.27,0,0,0,118,17.24a13.22,13.22,0,0,0-6.6-4.48c-4.78-1.68-10.87-2-16.21-1.74-2.27.1-4.66.29-7.14.57-.75-.74-1.53-1.45-2.33-2.12a39.36,39.36,0,0,0-5-3.61A40,40,0,0,0,20.48,33.13c-.1.56-.19,1.11-.26,1.67-2.13,1.29-4.13,2.61-6,3.93S10.7,41.34,9,42.81c-3.46,3-6.53,6.45-8,10a10.33,10.33,0,0,0-.48,7.5C3.19,68.19,15.09,69.37,24.58,69c2.28-.09,4.67-.28,7.14-.56A40,40,0,0,0,99.52,45.2c2.13-1.29,4.14-2.61,6-3.93C113.26,35.76,121.93,27.55,119.24,19.68Zm-48.86,51a32.43,32.43,0,0,1-28.66-3.82,188.93,188.93,0,0,0,25-6.75,188.77,188.77,0,0,0,23.92-10A32.43,32.43,0,0,1,70.38,70.69ZM64.31,53A167.54,167.54,0,0,1,34.64,60.4c-3.12.45-6,.74-8.63.9C15,62,8.46,60.23,7.65,57.87a1.85,1.85,0,0,1-.07-.57c0-1.22,1-3.49,4.08-6.64a51.86,51.86,0,0,1,7-5.77c.47-.34.95-.68,1.45-1a39.86,39.86,0,0,0,1.5,7.61c1.16,0,2.38-.06,3.66-.13s2.7-.2,4.14-.34l-.18-.52a32.44,32.44,0,1,1,61.38-21c.17.49.33,1,.47,1.49a32,32,0,0,1,1.26,7.92c0,.59,0,1.17,0,1.75A169.31,169.31,0,0,1,64.31,53ZM110,27.24a42.89,42.89,0,0,1-8.81,7.87l-1.46,1c0-.45-.09-.9-.16-1.35a38.74,38.74,0,0,0-1.81-7.72l0-.07a39.75,39.75,0,0,0-4-8.28,49.65,49.65,0,0,1,13.56.69c2.78.66,4.42,1.63,4.8,2.74C112.36,22.93,112,24.67,110,27.24Z"/></g></g></svg>