<svg xmlns="http://www.w3.org/2000/svg" viewBox="0 0 510.79 80"><defs><style>.cls-1{fill:#fff;}.cls-2{fill:#f42f89;}</style></defs><g id="Layer_2" data-name="Layer 2"><g id="Layer_1-2" data-name="Layer 1"><path class="cls-1" d="M146.87,69.09H134.31V13.83h25.11a20,20,0,0,1,14.21,5.37,17,17,0,0,1,5.76,13.18,17.22,17.22,0,0,1-5.76,13.26,19.92,19.92,0,0,1-14.21,5.29H146.87Zm0-43.74V39.41h12.55a6.78,6.78,0,0,0,7-7,6.78,6.78,0,0,0-7-7Z"/><path class="cls-1" d="M184,69.09V9.88h11.84V69.09Z"/><path class="cls-1" d="M205.76,33.17A18,18,0,0,1,219.65,27,18.61,18.61,0,0,1,231,30.8V28h11.76V69.09H231V66.25A18.7,18.7,0,0,1,205.76,64a22.34,22.34,0,0,1-5.53-15.39C200.23,42.41,202.05,37.28,205.76,33.17Zm6.79,15.32c0,5.68,4,9.94,9.16,9.94s9.15-4.26,9.15-9.94a9.6,9.6,0,0,0-2.68-7,8.61,8.61,0,0,0-6.47-2.84C216.57,38.7,212.55,43,212.55,48.49Z"/><path class="cls-1" d="M248.46,28h11.85v4.18A13.54,13.54,0,0,1,271.52,27a15.12,15.12,0,0,1,11.13,4.5,14.94,14.94,0,0,1,4.58,11.21V69.09H275.39V45.88c0-4.5-3.16-7.89-7.5-7.89a7.55,7.55,0,0,0-7.58,7.89V69.09H248.46Z"/><path class="cls-1" d="M304.12,52.83a10.17,10.17,0,0,0,10,7.18,10,10,0,0,0,8.13-3.63L333.73,59c-3.71,6.87-10.9,11.13-19.66,11.13A22.2,22.2,0,0,1,298,64a20.49,20.49,0,0,1-6.39-15.39,20.61,20.61,0,0,1,6.23-15.32,22.41,22.41,0,0,1,31,0,20.61,20.61,0,0,1,6.24,15.32,18.29,18.29,0,0,1-.48,4.26Zm18.95-8.76a10.16,10.16,0,0,0-9.63-7,9.75,9.75,0,0,0-9.24,7Z"/><path class="cls-1" d="M336.33,28h5.6v-8h11.85v8h9.31V38.3h-9.31V53.7a4.27,4.27,0,0,0,4.5,4.34h4.81V69.09H356.3A15,15,0,0,1,346,65.38,12.22,12.22,0,0,1,341.93,56V38.3h-5.6Z"/><path class="cls-1" d="M388.43,40c-.71-2.29-2.76-3.47-6.16-3.47-3.07,0-4.65.86-4.65,2.68,0,1,1.1,2,3.23,2.76l7.35,2.37c8.28,2.61,11.68,6.4,11.68,12.63,0,8.61-6.71,13.19-16.9,13.19-10.34,0-16.5-4.5-17.68-12.32l10.9-1.5c.78,2.77,3.15,4.11,7,4.11,3.16,0,5.37-1.11,5.37-3,0-1.34-1.34-2.37-4.11-3.16L377,52c-7.65-2.13-10.81-5.76-10.81-11.84,0-9.08,6.63-13.19,16.66-13.19,9.55,0,15.39,4.19,16.42,11.21Z"/><path class="cls-1" d="M402.64,17.85a7.1,7.1,0,0,1,2.05-5.21A7.4,7.4,0,0,1,410,10.59a7.08,7.08,0,0,1,5.21,2.05,6.86,6.86,0,0,1,2.13,5.21,6.87,6.87,0,0,1-2.13,5.22A7.08,7.08,0,0,1,410,25.12a7.4,7.4,0,0,1-5.29-2.05A7.11,7.11,0,0,1,402.64,17.85Zm1.42,51.24V28H415.9V69.09Z"/><path class="cls-1" d="M425.85,33.17A18,18,0,0,1,439.74,27a18.61,18.61,0,0,1,11.37,3.79V9.88h11.77V69.09H451.11V66.25A18.7,18.7,0,0,1,425.85,64a22.34,22.34,0,0,1-5.53-15.39C420.32,42.41,422.14,37.28,425.85,33.17Zm6.79,15.32c0,5.68,4,9.94,9.16,9.94S451,54.17,451,48.49a9.56,9.56,0,0,0-2.69-7,8.6,8.6,0,0,0-6.47-2.84C436.67,38.7,432.64,43,432.64,48.49Z"/><path class="cls-1" d="M479.77,52.83a10.17,10.17,0,0,0,10,7.18,10,10,0,0,0,8.14-3.63L509.37,59c-3.71,6.87-10.89,11.13-19.65,11.13a22.2,22.2,0,0,1-16-6.16,20.5,20.5,0,0,1-6.4-15.39,20.61,20.61,0,0,1,6.24-15.32,22.41,22.41,0,0,1,31,0,20.61,20.61,0,0,1,6.23,15.32,18.3,18.3,0,0,1-.47,4.26Zm19-8.76a10.17,10.17,0,0,0-9.64-7,9.75,9.75,0,0,0-9.23,7Z"/><path class="cls-2" d="M119.24,19.68A9.27,9.27,0,0,0,118,17.24a13.22,13.22,0,0,0-6.6-4.48c-4.78-1.68-10.87-2-16.21-1.74-2.27.1-4.66.29-7.14.57-.75-.74-1.53-1.45-2.33-2.12a39.36,39.36,0,0,0-5-3.61A40,40,0,0,0,20.48,33.13c-.1.56-.19,1.11-.26,1.67-2.13,1.29-4.13,2.61-6,3.93S10.7,41.34,9,42.81c-3.46,3-6.53,6.45-8,10a10.33,10.33,0,0,0-.48,7.5C3.19,68.19,15.09,69.37,24.58,69c2.28-.09,4.67-.28,7.14-.56A40,40,0,0,0,99.52,45.2c2.13-1.29,4.14-2.61,6-3.93C113.26,35.76,121.93,27.55,119.24,19.68ZM26,61.3C15,62,8.46,60.23,7.65,57.87a1.85,1.85,0,0,1-.07-.57c0-1.22,1-3.49,4.08-6.64a51.86,51.86,0,0,1,7-5.77c.47-.34.95-.68,1.45-1a39.86,39.86,0,0,0,1.5,7.61c1.16,0,2.38-.06,3.66-.13s2.7-.2,4.14-.34l-.18-.52a32.44,32.44,0,1,1,61.38-21c.17.49.33,1,.47,1.49a32,32,0,0,1,1.26,7.92c0,.59,0,1.17,0,1.75a169.31,169.31,0,0,1-28,12.3A167.54,167.54,0,0,1,34.64,60.4C31.52,60.85,28.64,61.14,26,61.3Zm44.37,9.39a32.43,32.43,0,0,1-28.66-3.82,188.93,188.93,0,0,0,25-6.75,188.77,188.77,0,0,0,23.92-10A32.43,32.43,0,0,1,70.38,70.69ZM110,27.24a42.89,42.89,0,0,1-8.81,7.87l-1.46,1c0-.45-.09-.9-.16-1.35a38.74,38.74,0,0,0-1.81-7.72l0-.07a39.75,39.75,0,0,0-4-8.28,49.65,49.65,0,0,1,13.56.69c2.78.66,4.42,1.63,4.8,2.74C112.36,22.93,112,24.67,110,27.24Z"/></g></g></svg>